<?xml version="1.0" encoding="UTF-8"?>
<!DOCTYPE svg PUBLIC "-//W3C//DTD SVG 1.1//EN" "http://www.w3.org/Graphics/SVG/1.1/DTD/svg11.dtd">
<!-- Creator: CorelDRAW 2021 (64-Bit) -->
<svg xmlns="http://www.w3.org/2000/svg" xml:space="preserve" width="210mm" height="297mm" version="1.1" style="shape-rendering:geometricPrecision; text-rendering:geometricPrecision; image-rendering:optimizeQuality; fill-rule:evenodd; clip-rule:evenodd"
viewBox="0 0 21000 29700"
 xmlns:xlink="http://www.w3.org/1999/xlink"
 xmlns:xodm="http://www.corel.com/coreldraw/odm/2003">
 <defs>
  <style type="text/css">
   <![CDATA[
    .fil1 {fill:#009FFF}
    .fil0 {fill:#202020}
   ]]>
  </style>
 </defs>
 <g id="Layer_x0020_1">
  <metadata id="CorelCorpID_0Corel-Layer"/>
  <g id="_1923512001712">
   <path class="fil0" d="M17180.21 19570.18c-30.09,-44.94 -116.66,-117.2 -167.17,-163.04 -66.64,-60.48 -651.8,-212.89 -757.44,-241.62l-526.76 -142.11c-178.07,-50.58 -360.9,-86.82 -539.98,-128.89 -397.48,-93.37 -404.72,104.02 -404.72,-933.01l0.03 -2006.64c0.59,-113.38 18.22,-70.62 -120.68,-209.52 -151.57,-151.57 -194.82,-182.03 -387.4,-281.47 -36.04,-18.61 -69.79,-40.9 -107.41,-61.92 -276.07,-154.32 -699.99,-419.1 -959.41,-547.66 -107.69,-53.38 -210.69,-127.21 -311.5,-188.03l-851.94 -485.8c-28.1,-16.82 -84.71,-47.32 -114.96,-54.37 0,92.44 -8.47,163.46 -8.47,262.47 0,90.11 1.45,181.32 0.34,271.27 -0.61,49.7 -9.24,69.56 -8.92,126.55 2.88,501.8 -8.35,1000.89 -8.35,1498.71 0,363.27 4.82,729.7 0.34,1092.54 -0.62,49.71 -9.25,69.56 -8.92,126.55l0.11 414.98c0.03,97.93 -8.68,163.78 -8.27,262.67 0.31,72.85 -4.86,180.62 -42.53,236.87 -20.79,-1.78 -22.08,-2.59 -36.72,-8.47 -40.62,31.05 -617.19,8.19 -716.81,7.75 -78.79,-0.34 -699.98,5.98 -709.25,0.72 -43.62,-10.46 -47.06,-83.99 -51.43,-128.32 -15.14,-153.41 -10.21,-299.3 -18.22,-447.46 -2.03,-37.66 -8.3,-40.62 -8.84,-84.29 -3.02,-244.68 0.34,-491.94 0.34,-736.94 0,-250.14 -8.47,-475.18 -8.47,-728.13l0 -2954.87c0,-143.63 -2.05,-486.24 -26.14,-625.8 -1.25,-7.29 -5.46,-28.8 -7.91,-34.42 -11.35,-25.99 -27.28,-34.91 -30.54,-27.61l-17.21 -2.77c-73.97,3.18 -106.37,78.61 -179.44,107.62 -173.13,68.75 -537.26,318.46 -768.94,433.33 -21.83,10.82 -32.76,19.84 -53.56,31.11 -209.92,113.79 -407.08,239 -612.27,361.4 -104.53,62.35 -407.45,250.54 -508.88,295.46 -112.13,49.66 -206.85,116.15 -312.36,178.7 -122.81,72.81 -293.41,152.48 -358.85,284.62 -69.53,140.38 -78.77,366.93 -78.77,573.16 0,219.66 -8.47,413.04 -8.47,635 0,272.65 -13.58,704.63 8.02,965.65 23.15,279.73 -61.31,292.59 285.7,98.54 73.36,-41.02 136.66,-78.88 208.55,-121.66 71.04,-42.27 126.51,-84.69 200.47,-121.26 73.59,-36.39 136.28,-77.83 203.6,-118.13l970.57 -561.9c264.89,-147.12 306.15,-216.66 316.03,-5.84l8.4 177.87c-0.01,127.96 8.47,226.32 8.47,355.6 0,245.53 0,491.07 0,736.6 0,249.62 -8.47,475.15 -8.47,728.14 0,245.53 0,491.06 0,736.6 -54.44,0 -103.37,15.84 -152.4,16.93l0 -2040.47c0.04,-70.59 -8.68,-117.87 -8.76,-177.51 -0.12,-88.94 2.21,-294.9 -35.74,-337.2 -51.16,-57.01 -158.02,56.26 -240.48,94.26 -81.35,37.48 -157.08,85.09 -233.09,130.99l-593.68 337.64c-198.47,110.43 -388.67,229.89 -584.26,347.09 -155.92,93.42 -321.46,174.44 -477.26,267.8l-472.15 264.45c-60.02,40.89 -131.36,136.24 -176.46,196.08 -59.9,79.49 -92.9,143.97 -98.98,273.55 -12.9,274.76 -18.46,449.73 -17.02,728.04 0.28,55.32 -3.82,120.4 -10.66,175.62 -25.12,202.88 -93.03,139.53 -358.63,200.17 -498.53,113.82 -992.04,236.19 -1477.58,385.08 -95.21,29.2 -187.38,56.77 -283.52,89.02 -95.93,32.17 -188.53,57.53 -287.63,84.9 -74.15,20.48 -106.21,71.97 -163.18,116.22 -24.12,18.74 -34.48,15.72 -43.53,49.61 77.05,0 662.85,-121.87 766.84,-139.1l1174.62 -180.04c138.38,-20.19 267.32,-29.19 408.65,-48.56 168.94,-23.16 337.42,-28.04 506.78,-52.02 33.34,-4.72 80.26,-9.37 107.09,-11.44 76.26,-5.9 136.06,-13.69 210.78,-17.83 61.33,-3.4 134.67,-10.99 202.1,-18.03l416.85 -40.34c162.07,-12.59 372.07,-32.66 524.62,-34.19 48.04,-0.48 58.52,-9.04 109.45,-9.08 216.68,-0.17 436.44,-25.61 652.22,-25.12 36.76,0.08 73.51,0.06 110.27,0.21 51.88,0.21 65.47,-7.62 109.59,-8.94 74.27,-2.22 154.21,-0.04 228.99,0.39 74.19,0.42 136.06,-8.59 220.03,-8.58 306.88,0.01 594.05,-8.47 905.93,-8.47 301.98,0 603.96,0 905.93,0 299.28,0 594.13,17.01 889.01,16.93 82.65,-0.02 135.6,8.92 211.61,8.53 157.07,-0.82 287.93,14.85 440.65,16.54 61.86,0.69 150.7,14.32 211.35,17.25l1464.43 118.84c155.6,10.32 846.35,98.93 1011.58,122.96l1571.05 249.29z"/>
   <path class="fil1" d="M10383.42 18418.71c9.27,5.26 630.46,-1.06 709.25,-0.72 99.62,0.44 676.19,23.3 716.81,-7.75 -54.1,-86.62 -27.96,-388.35 -39.92,-532.96 -14.56,-175.87 -8.02,-386.38 -8.02,-576.18 0,-389.69 -8.47,-757.73 -8.47,-1151.46l0 -1744.14c-0.01,-47.62 9.68,-464.88 30.36,-511.5 12.74,-28.72 24.53,-22.7 24.53,-22.69 0.51,1.47 3.61,-0.6 4.35,-0.56l90.44 29.46c34.53,16.2 63.79,32.14 95.86,48.08 64.66,32.16 120.82,66.84 183.58,104.28 60.58,36.14 121.38,76.08 180.97,106.91 203.48,105.26 354.13,188.08 559.91,312.15 62.71,37.82 111.47,75.68 182.29,105.59 141.91,59.92 117.03,110.89 180.18,116.15 71.67,-149.38 50.8,-1637.94 50.8,-1820.34 0,-311.95 2.53,-631.63 -24.62,-915.19 -13.43,-140.35 -42.51,-267.38 -123.22,-342.44 -36.85,-34.26 -96.21,-73.52 -140.01,-97.06 -337.42,-181.27 -706.76,-407.7 -1041.78,-600.75l-302.9 -171.24c-98.76,-59.77 -192.11,-114.95 -291.01,-174.66l-224.3 -131.29c-14.98,-8.32 -24.31,-11.68 -39.26,-20.01l-188.44 -99.44c-53.1,-31.41 -97.57,-56.85 -149.13,-87.93 -59.8,-36.05 -241.5,-156.62 -311.67,-162.46l-8.46 254.01c0.21,90.3 -8.47,157.63 -8.47,253.99l0.11 398.05c0.32,56.99 -8.3,76.84 -8.92,126.55 -4.34,351.58 0.34,706.67 0.34,1058.67 0,354.98 -8.47,690.08 -8.47,1049.87l0 3962.4c0,98.92 -8.68,170.27 -8.47,262.46 0.31,139.28 14.87,397.32 -2.31,522.63 -8.54,62.31 -1.34,261.47 -18.91,379.03 -9.52,63.74 -8.63,53.27 -53.02,80.49z"/>
   <polygon class="fil0" points="17180.21,19570.18 17180.21,19578.64 17190.09,19571.59 "/>
  </g>
 </g>
</svg>
